<?xml version="1.0" standalone="no"?>
<!DOCTYPE svg PUBLIC "-//W3C//DTD SVG 20010904//EN"
 "http://www.w3.org/TR/2001/REC-SVG-20010904/DTD/svg10.dtd">
<svg version="1.0" xmlns="http://www.w3.org/2000/svg"
 width="329.000000pt" height="329.000000pt" viewBox="0 0 329.000000 329.000000"
 preserveAspectRatio="xMidYMid meet">
<metadata>
Created by potrace 1.11, written by Peter Selinger 2001-2013
</metadata>
<g transform="translate(0.000000,329.000000) scale(0.100000,-0.100000)"
fill="#000000" stroke="none">
<path d="M0 3199 c0 -22 12 -34 67 -70 76 -50 134 -104 215 -200 185 -220 275
-443 304 -746 l6 -73 -91 0 -91 0 0 -160 0 -160 90 0 90 0 0 -704 c0 -551 3
-706 13 -713 6 -6 62 -36 122 -68 61 -32 151 -80 201 -106 l91 -48 1 397 c0
374 1 400 20 455 78 218 394 452 587 434 71 -7 114 -29 154 -82 46 -61 63
-115 69 -214 11 -189 -46 -346 -183 -501 -97 -110 -124 -140 -174 -192 -30
-32 -53 -59 -50 -61 8 -8 240 -147 244 -147 2 0 21 -12 42 -26 66 -45 81 -47
116 -18 140 114 259 257 317 379 107 225 101 458 -20 700 -140 283 -373 432
-665 424 -144 -4 -257 -45 -377 -137 l-67 -52 -3 103 c-2 56 -2 119 0 140 l3
37 1055 0 1054 0 0 160 0 160 -1055 0 c-837 0 -1055 3 -1056 13 -6 91 -35 255
-60 342 -102 350 -257 607 -440 729 l-55 36 -237 -2 -237 -2 0 -27z"/>
<path d="M2322 2938 c0 -29 4 -64 10 -78 6 -14 14 -34 19 -45 4 -11 19 -46 33
-77 14 -32 28 -68 31 -80 14 -51 67 -93 173 -132 100 -38 134 -76 209 -228 67
-138 72 -142 156 -141 72 1 97 28 91 98 -2 29 -12 73 -23 97 -10 24 -42 115
-70 203 -59 182 -84 230 -144 278 -96 78 -304 157 -415 157 l-69 0 -1 -52z"/>
<path d="M2567 1708 c-7 -4 -10 -215 -10 -682 0 -372 1 -677 4 -679 7 -6 387
-217 391 -217 7 0 3 1569 -4 1576 -9 9 -366 11 -381 2z"/>
</g>
</svg>
